<svg width="800" height="157" viewBox="0 0 800 157" fill="none" xmlns="http://www.w3.org/2000/svg">
<path d="M15.1677 144.923V12.3666H90.8099C97.7567 12.3666 103.996 13.7192 109.528 16.4245C115.188 19.1297 119.626 22.9299 122.842 27.8251C126.058 32.7203 127.666 38.4528 127.666 45.0226C127.666 50.3043 126.701 55.0062 124.772 59.1285C122.842 63.2507 120.205 66.6645 116.86 69.3697C113.644 72.0749 109.978 74.0716 105.861 75.3598V76.1328C110.75 77.1633 115.059 79.0956 118.79 81.9297C122.649 84.7637 125.672 88.4351 127.859 92.9438C130.175 97.3237 131.333 102.541 131.333 108.596C131.333 116.582 129.467 123.281 125.737 128.692C122.135 134.102 117.31 138.16 111.264 140.865C105.218 143.57 98.4642 144.923 91.0029 144.923H15.1677ZM43.9195 121.349H85.4069C90.1667 121.349 94.026 119.996 96.9848 117.291C100.072 114.586 101.616 110.399 101.616 104.731C101.616 101.382 100.973 98.4831 99.6863 96.0355C98.3999 93.588 96.4702 91.7201 93.8974 90.4319C91.3245 89.0148 88.0441 88.3063 84.0562 88.3063H43.9195V121.349ZM43.9195 65.8915H82.1265C85.5999 65.8915 88.4944 65.2474 90.8099 63.9592C93.2542 62.5422 95.0552 60.7387 96.213 58.5488C97.4994 56.23 98.1426 53.5892 98.1426 50.6263C98.1426 45.6023 96.7275 41.8021 93.8974 39.2257C91.1959 36.6493 87.5939 35.3611 83.0913 35.3611H43.9195V65.8915ZM381.688 144.923V12.3666H408.125L461.383 83.862C462.155 84.7637 463.119 86.0519 464.277 87.7266C465.435 89.2725 466.529 90.8183 467.558 92.3642C468.587 93.91 469.294 95.1338 469.68 96.0355H470.645C470.645 93.8456 470.645 91.72 470.645 89.6589C470.645 87.469 470.645 85.5367 470.645 83.862V12.3666H497.853V144.923H471.417L417.001 71.6885C415.714 69.885 414.364 67.8883 412.949 65.6983C411.534 63.5084 410.504 61.8337 409.861 60.6743H408.896C408.896 62.6066 408.896 64.5389 408.896 66.4712C408.896 68.2747 408.896 70.0138 408.896 71.6885V144.923H381.688ZM586.404 147.242C572.639 147.242 560.868 144.859 551.091 140.092C541.315 135.197 533.853 127.661 528.707 117.484C523.69 107.307 521.182 94.3609 521.182 78.6448C521.182 55.4571 526.842 38.2595 538.163 27.0522C549.612 15.716 565.692 10.0479 586.404 10.0479C597.725 10.0479 607.887 11.9802 616.892 15.8448C625.897 19.7094 632.973 25.5063 638.118 33.2355C643.393 40.9648 646.03 50.6907 646.03 62.4134H617.085C617.085 56.23 615.799 51.0128 613.226 46.7617C610.782 42.5106 607.244 39.2901 602.613 37.1002C598.11 34.7814 592.836 33.622 586.79 33.622C578.557 33.622 571.739 35.2323 566.336 38.4528C561.061 41.6733 557.138 46.4396 554.565 52.7519C552.121 58.9352 550.898 66.5356 550.898 75.5531V81.5432C550.898 90.8183 552.185 98.612 554.758 104.924C557.331 111.108 561.19 115.809 566.336 119.03C571.61 122.122 578.364 123.668 586.597 123.668C593.029 123.668 598.625 122.573 603.385 120.383C608.145 118.193 611.811 114.972 614.384 110.721C616.957 106.47 618.243 101.253 618.243 95.0694H646.03C646.03 106.792 643.457 116.518 638.311 124.247C633.294 131.976 626.283 137.773 617.278 141.638C608.273 145.374 597.982 147.242 586.404 147.242ZM668.687 144.923V12.3666H697.439V64.9254H756.1V12.3666H784.852V144.923H756.1V89.2725H697.439V144.923H668.687Z" fill="black"/>
<path d="M353.769 101.891H160.804V125.559H353.769V101.891Z" fill="#7E6000"/>
<path d="M208.503 125.558H195.494V144.922H208.503V125.558Z" fill="#7E6000"/>
<path d="M319.078 125.558H306.07V144.922H319.078V125.558Z" fill="#7E6000"/>
<path d="M325.583 61.0098H188.99V82.5261H325.583V61.0098Z" fill="#7E6000"/>
<path d="M325.583 20.1284H188.99V41.6448H325.583V20.1284Z" fill="#7E6000"/>
</svg>
